<mxfile host="app.diagrams.net" modified="2021-01-29T22:15:08.514Z" agent="5.0 (Macintosh)" etag="7rZQ0RPvzcrg-p-OtG0x" version="14.2.9" type="github">
  <diagram id="hsf868e_G697D2QuOopU" name="Page-1">
    <mxGraphModel dx="1577" dy="1085" grid="1" gridSize="10" guides="1" tooltips="1" connect="1" arrows="1" fold="1" page="1" pageScale="1" pageWidth="850" pageHeight="1100" math="0" shadow="0">
      <root>
        <mxCell id="0" />
        <mxCell id="1" parent="0" />
        <mxCell id="dQEKMLo4c5Q9Y4gcqhOH-5" value="" style="rounded=0;whiteSpace=wrap;html=1;fillColor=#e1d5e7;strokeColor=#9673a6;" vertex="1" parent="1">
          <mxGeometry x="93.5" y="280" width="80" height="50" as="geometry" />
        </mxCell>
        <mxCell id="dQEKMLo4c5Q9Y4gcqhOH-6" value="" style="rounded=0;whiteSpace=wrap;html=1;fillColor=#f8cecc;strokeColor=#b85450;" vertex="1" parent="1">
          <mxGeometry x="173.5" y="280" width="80" height="50" as="geometry" />
        </mxCell>
        <mxCell id="dQEKMLo4c5Q9Y4gcqhOH-7" value="" style="rounded=0;whiteSpace=wrap;html=1;fillColor=#d5e8d4;strokeColor=#82b366;" vertex="1" parent="1">
          <mxGeometry x="253.5" y="280" width="80" height="50" as="geometry" />
        </mxCell>
        <mxCell id="dQEKMLo4c5Q9Y4gcqhOH-8" value="" style="rounded=0;whiteSpace=wrap;html=1;fillColor=#dae8fc;strokeColor=#6c8ebf;" vertex="1" parent="1">
          <mxGeometry x="333.5" y="280" width="80" height="50" as="geometry" />
        </mxCell>
        <mxCell id="dQEKMLo4c5Q9Y4gcqhOH-9" value="" style="rounded=0;whiteSpace=wrap;html=1;fillColor=#dae8fc;strokeColor=#6c8ebf;" vertex="1" parent="1">
          <mxGeometry x="93.5" y="360" width="320" height="50" as="geometry" />
        </mxCell>
        <mxCell id="dQEKMLo4c5Q9Y4gcqhOH-10" value="" style="rounded=0;whiteSpace=wrap;html=1;fillColor=#d5e8d4;strokeColor=#82b366;" vertex="1" parent="1">
          <mxGeometry x="93.5" y="440" width="320" height="50" as="geometry" />
        </mxCell>
        <mxCell id="dQEKMLo4c5Q9Y4gcqhOH-11" value="" style="rounded=0;whiteSpace=wrap;html=1;fillColor=#f8cecc;strokeColor=#b85450;" vertex="1" parent="1">
          <mxGeometry x="93.5" y="520" width="320" height="50" as="geometry" />
        </mxCell>
        <mxCell id="dQEKMLo4c5Q9Y4gcqhOH-12" value="" style="rounded=0;whiteSpace=wrap;html=1;fillColor=#e1d5e7;strokeColor=#9673a6;" vertex="1" parent="1">
          <mxGeometry x="93.5" y="600" width="320" height="50" as="geometry" />
        </mxCell>
        <mxCell id="dQEKMLo4c5Q9Y4gcqhOH-15" value="" style="rounded=0;whiteSpace=wrap;html=1;fillColor=#e1d5e7;strokeColor=#9673a6;" vertex="1" parent="1">
          <mxGeometry x="93.5" y="280" width="40" height="50" as="geometry" />
        </mxCell>
        <mxCell id="dQEKMLo4c5Q9Y4gcqhOH-16" value="" style="rounded=0;whiteSpace=wrap;html=1;fillColor=#f8cecc;strokeColor=#b85450;" vertex="1" parent="1">
          <mxGeometry x="173.5" y="280" width="40" height="50" as="geometry" />
        </mxCell>
        <mxCell id="dQEKMLo4c5Q9Y4gcqhOH-17" value="" style="rounded=0;whiteSpace=wrap;html=1;fillColor=#d5e8d4;strokeColor=#82b366;" vertex="1" parent="1">
          <mxGeometry x="253.5" y="280" width="40" height="50" as="geometry" />
        </mxCell>
        <mxCell id="dQEKMLo4c5Q9Y4gcqhOH-18" value="" style="rounded=0;whiteSpace=wrap;html=1;fillColor=#dae8fc;strokeColor=#6c8ebf;" vertex="1" parent="1">
          <mxGeometry x="333.5" y="280" width="40" height="50" as="geometry" />
        </mxCell>
        <mxCell id="dQEKMLo4c5Q9Y4gcqhOH-19" value="Payload - 1 a 4 Bytes (para cada entero)" style="text;html=1;strokeColor=none;fillColor=none;align=center;verticalAlign=middle;whiteSpace=wrap;rounded=0;" vertex="1" parent="1">
          <mxGeometry x="351" y="690" width="232.5" height="20" as="geometry" />
        </mxCell>
        <mxCell id="dQEKMLo4c5Q9Y4gcqhOH-30" value="" style="shape=curlyBracket;whiteSpace=wrap;html=1;rounded=1;rotation=-90;" vertex="1" parent="1">
          <mxGeometry x="438.5" y="300" width="30" height="740" as="geometry" />
        </mxCell>
        <mxCell id="dQEKMLo4c5Q9Y4gcqhOH-31" value="" style="shape=curlyBracket;whiteSpace=wrap;html=1;rounded=1;rotation=-90;direction=west;" vertex="1" parent="1">
          <mxGeometry x="243.5" y="90" width="30" height="340" as="geometry" />
        </mxCell>
        <mxCell id="dQEKMLo4c5Q9Y4gcqhOH-32" value="&lt;div&gt;Header &lt;br&gt;&lt;/div&gt;&lt;div&gt;1 Byte&lt;/div&gt;" style="text;html=1;strokeColor=none;fillColor=none;align=center;verticalAlign=middle;whiteSpace=wrap;rounded=0;" vertex="1" parent="1">
          <mxGeometry x="213.5" y="220" width="90" height="20" as="geometry" />
        </mxCell>
        <mxCell id="dQEKMLo4c5Q9Y4gcqhOH-33" value="" style="rounded=0;whiteSpace=wrap;html=1;fillColor=#dae8fc;strokeColor=#6c8ebf;" vertex="1" parent="1">
          <mxGeometry x="493.5" y="360" width="320" height="50" as="geometry" />
        </mxCell>
        <mxCell id="dQEKMLo4c5Q9Y4gcqhOH-34" value="" style="rounded=0;whiteSpace=wrap;html=1;fillColor=#d5e8d4;strokeColor=#82b366;" vertex="1" parent="1">
          <mxGeometry x="493.5" y="440" width="320" height="50" as="geometry" />
        </mxCell>
        <mxCell id="dQEKMLo4c5Q9Y4gcqhOH-35" value="" style="rounded=0;whiteSpace=wrap;html=1;fillColor=#f8cecc;strokeColor=#b85450;" vertex="1" parent="1">
          <mxGeometry x="493.5" y="520" width="320" height="50" as="geometry" />
        </mxCell>
        <mxCell id="dQEKMLo4c5Q9Y4gcqhOH-36" value="" style="rounded=0;whiteSpace=wrap;html=1;fillColor=#e1d5e7;strokeColor=#9673a6;" vertex="1" parent="1">
          <mxGeometry x="493.5" y="600" width="320" height="50" as="geometry" />
        </mxCell>
        <mxCell id="dQEKMLo4c5Q9Y4gcqhOH-37" value="***" style="text;html=1;align=center;verticalAlign=middle;resizable=0;points=[];autosize=1;" vertex="1" parent="1">
          <mxGeometry x="438.5" y="380" width="30" height="20" as="geometry" />
        </mxCell>
        <mxCell id="dQEKMLo4c5Q9Y4gcqhOH-38" value="***" style="text;html=1;align=center;verticalAlign=middle;resizable=0;points=[];autosize=1;" vertex="1" parent="1">
          <mxGeometry x="438.5" y="460" width="30" height="20" as="geometry" />
        </mxCell>
        <mxCell id="dQEKMLo4c5Q9Y4gcqhOH-39" value="***" style="text;html=1;align=center;verticalAlign=middle;resizable=0;points=[];autosize=1;" vertex="1" parent="1">
          <mxGeometry x="438.5" y="535" width="30" height="20" as="geometry" />
        </mxCell>
        <mxCell id="dQEKMLo4c5Q9Y4gcqhOH-40" value="***" style="text;html=1;align=center;verticalAlign=middle;resizable=0;points=[];autosize=1;" vertex="1" parent="1">
          <mxGeometry x="438.5" y="615" width="30" height="20" as="geometry" />
        </mxCell>
        <mxCell id="dQEKMLo4c5Q9Y4gcqhOH-41" value="Entero 1" style="text;html=1;strokeColor=none;fillColor=none;align=center;verticalAlign=middle;whiteSpace=wrap;rounded=0;" vertex="1" parent="1">
          <mxGeometry x="13.5" y="375" width="80" height="20" as="geometry" />
        </mxCell>
        <mxCell id="dQEKMLo4c5Q9Y4gcqhOH-42" value="Entero 2" style="text;html=1;strokeColor=none;fillColor=none;align=center;verticalAlign=middle;whiteSpace=wrap;rounded=0;" vertex="1" parent="1">
          <mxGeometry x="13.5" y="460" width="80" height="20" as="geometry" />
        </mxCell>
        <mxCell id="dQEKMLo4c5Q9Y4gcqhOH-43" value="Entero 3" style="text;html=1;strokeColor=none;fillColor=none;align=center;verticalAlign=middle;whiteSpace=wrap;rounded=0;" vertex="1" parent="1">
          <mxGeometry x="13.5" y="535" width="80" height="20" as="geometry" />
        </mxCell>
        <mxCell id="dQEKMLo4c5Q9Y4gcqhOH-44" value="Entero 4" style="text;html=1;strokeColor=none;fillColor=none;align=center;verticalAlign=middle;whiteSpace=wrap;rounded=0;" vertex="1" parent="1">
          <mxGeometry x="13.5" y="615" width="80" height="20" as="geometry" />
        </mxCell>
        <mxCell id="dQEKMLo4c5Q9Y4gcqhOH-45" value="&lt;br&gt;&lt;p&gt;Cada flag de 2 bits indica el largo en bytes del Entero comprimido.&lt;br&gt;&lt;/p&gt;" style="text;html=1;strokeColor=none;fillColor=none;spacing=5;spacingTop=-20;whiteSpace=wrap;overflow=hidden;rounded=0;" vertex="1" parent="1">
          <mxGeometry x="438.5" y="282" width="195" height="58" as="geometry" />
        </mxCell>
        <mxCell id="dQEKMLo4c5Q9Y4gcqhOH-47" value="&lt;font style=&quot;font-size: 35px&quot;&gt;VarIntGB&lt;/font&gt;" style="text;html=1;align=center;verticalAlign=middle;resizable=0;points=[];autosize=1;" vertex="1" parent="1">
          <mxGeometry x="345" y="35" width="160" height="30" as="geometry" />
        </mxCell>
        <mxCell id="dQEKMLo4c5Q9Y4gcqhOH-76" value="La flag es un indentificador que indica cuantos enteros fueron comprimidos en 8 bytes." style="text;html=1;strokeColor=none;fillColor=none;spacing=5;spacingTop=-20;whiteSpace=wrap;overflow=hidden;rounded=0;" vertex="1" parent="1">
          <mxGeometry x="468.5" y="1015" width="195" height="58" as="geometry" />
        </mxCell>
        <mxCell id="dQEKMLo4c5Q9Y4gcqhOH-77" value="&lt;font style=&quot;font-size: 35px&quot;&gt;VarIntG8IU&lt;/font&gt;" style="text;html=1;align=center;verticalAlign=middle;resizable=0;points=[];autosize=1;" vertex="1" parent="1">
          <mxGeometry x="348.5" y="785" width="190" height="30" as="geometry" />
        </mxCell>
        <mxCell id="dQEKMLo4c5Q9Y4gcqhOH-96" value="" style="rounded=0;whiteSpace=wrap;html=1;fillColor=#dae8fc;strokeColor=#6c8ebf;" vertex="1" parent="1">
          <mxGeometry x="96" y="1095" width="320" height="50" as="geometry" />
        </mxCell>
        <mxCell id="dQEKMLo4c5Q9Y4gcqhOH-97" value="" style="rounded=0;whiteSpace=wrap;html=1;fillColor=#dae8fc;strokeColor=#6c8ebf;" vertex="1" parent="1">
          <mxGeometry x="96" y="1175" width="320" height="50" as="geometry" />
        </mxCell>
        <mxCell id="dQEKMLo4c5Q9Y4gcqhOH-98" value="" style="rounded=0;whiteSpace=wrap;html=1;fillColor=#dae8fc;strokeColor=#6c8ebf;" vertex="1" parent="1">
          <mxGeometry x="96" y="1255" width="320" height="50" as="geometry" />
        </mxCell>
        <mxCell id="dQEKMLo4c5Q9Y4gcqhOH-99" value="" style="rounded=0;whiteSpace=wrap;html=1;fillColor=#dae8fc;strokeColor=#6c8ebf;" vertex="1" parent="1">
          <mxGeometry x="96" y="1335" width="320" height="50" as="geometry" />
        </mxCell>
        <mxCell id="dQEKMLo4c5Q9Y4gcqhOH-100" value="1 Byte" style="text;html=1;strokeColor=none;fillColor=none;align=center;verticalAlign=middle;whiteSpace=wrap;rounded=0;" vertex="1" parent="1">
          <mxGeometry x="139.75" y="1785" width="232.5" height="20" as="geometry" />
        </mxCell>
        <mxCell id="dQEKMLo4c5Q9Y4gcqhOH-101" value="" style="shape=curlyBracket;whiteSpace=wrap;html=1;rounded=1;rotation=-90;" vertex="1" parent="1">
          <mxGeometry x="238.5" y="1585" width="30" height="340" as="geometry" />
        </mxCell>
        <mxCell id="dQEKMLo4c5Q9Y4gcqhOH-102" value="Entero 1" style="text;html=1;strokeColor=none;fillColor=none;align=center;verticalAlign=middle;whiteSpace=wrap;rounded=0;" vertex="1" parent="1">
          <mxGeometry x="16" y="1915" width="80" height="20" as="geometry" />
        </mxCell>
        <mxCell id="dQEKMLo4c5Q9Y4gcqhOH-106" value="" style="rounded=0;whiteSpace=wrap;html=1;fillColor=#f8cecc;strokeColor=#b85450;" vertex="1" parent="1">
          <mxGeometry x="96" y="1425" width="320" height="50" as="geometry" />
        </mxCell>
        <mxCell id="dQEKMLo4c5Q9Y4gcqhOH-107" value="" style="rounded=0;whiteSpace=wrap;html=1;fillColor=#f8cecc;strokeColor=#b85450;" vertex="1" parent="1">
          <mxGeometry x="96" y="1505" width="320" height="50" as="geometry" />
        </mxCell>
        <mxCell id="dQEKMLo4c5Q9Y4gcqhOH-108" value="" style="rounded=0;whiteSpace=wrap;html=1;fillColor=#f8cecc;strokeColor=#b85450;" vertex="1" parent="1">
          <mxGeometry x="96" y="1585" width="320" height="50" as="geometry" />
        </mxCell>
        <mxCell id="dQEKMLo4c5Q9Y4gcqhOH-109" value="" style="rounded=0;whiteSpace=wrap;html=1;fillColor=#f8cecc;strokeColor=#b85450;" vertex="1" parent="1">
          <mxGeometry x="96" y="1665" width="320" height="50" as="geometry" />
        </mxCell>
        <mxCell id="dQEKMLo4c5Q9Y4gcqhOH-110" value="Entero 2" style="text;html=1;strokeColor=none;fillColor=none;align=center;verticalAlign=middle;whiteSpace=wrap;rounded=0;" vertex="1" parent="1">
          <mxGeometry x="13.5" y="2115" width="80" height="20" as="geometry" />
        </mxCell>
        <mxCell id="dQEKMLo4c5Q9Y4gcqhOH-115" value="0x00" style="text;html=1;align=center;verticalAlign=middle;resizable=0;points=[];autosize=1;" vertex="1" parent="1">
          <mxGeometry x="233.5" y="1520" width="40" height="20" as="geometry" />
        </mxCell>
        <mxCell id="dQEKMLo4c5Q9Y4gcqhOH-116" value="0x10" style="text;html=1;align=center;verticalAlign=middle;resizable=0;points=[];autosize=1;" vertex="1" parent="1">
          <mxGeometry x="233.5" y="1440" width="40" height="20" as="geometry" />
        </mxCell>
        <mxCell id="dQEKMLo4c5Q9Y4gcqhOH-117" value="0x00" style="text;html=1;align=center;verticalAlign=middle;resizable=0;points=[];autosize=1;" vertex="1" parent="1">
          <mxGeometry x="238.5" y="1600" width="40" height="20" as="geometry" />
        </mxCell>
        <mxCell id="dQEKMLo4c5Q9Y4gcqhOH-118" value="0x10" style="text;html=1;align=center;verticalAlign=middle;resizable=0;points=[];autosize=1;" vertex="1" parent="1">
          <mxGeometry x="243.5" y="1680" width="40" height="20" as="geometry" />
        </mxCell>
        <mxCell id="dQEKMLo4c5Q9Y4gcqhOH-119" value="" style="shape=curlyBracket;whiteSpace=wrap;html=1;rounded=1;fillColor=#B3B3B3;direction=west;" vertex="1" parent="1">
          <mxGeometry x="446" y="1085" width="20" height="650" as="geometry" />
        </mxCell>
        <mxCell id="dQEKMLo4c5Q9Y4gcqhOH-121" value="8 Bytes" style="text;html=1;strokeColor=none;fillColor=none;align=center;verticalAlign=middle;whiteSpace=wrap;rounded=0;" vertex="1" parent="1">
          <mxGeometry x="431" y="1400" width="170" height="20" as="geometry" />
        </mxCell>
        <mxCell id="dQEKMLo4c5Q9Y4gcqhOH-124" value="" style="rounded=0;whiteSpace=wrap;html=1;fillColor=#f5f5f5;strokeColor=#666666;fontColor=#333333;" vertex="1" parent="1">
          <mxGeometry x="97" y="1015" width="80" height="50" as="geometry" />
        </mxCell>
        <mxCell id="dQEKMLo4c5Q9Y4gcqhOH-128" value="0" style="rounded=0;whiteSpace=wrap;html=1;strokeColor=#6c8ebf;fillColor=#dae8fc;" vertex="1" parent="1">
          <mxGeometry x="97" y="1015" width="40" height="50" as="geometry" />
        </mxCell>
        <mxCell id="dQEKMLo4c5Q9Y4gcqhOH-132" value="" style="shape=curlyBracket;whiteSpace=wrap;html=1;rounded=1;rotation=-90;direction=west;" vertex="1" parent="1">
          <mxGeometry x="243.5" y="815" width="30" height="340" as="geometry" />
        </mxCell>
        <mxCell id="dQEKMLo4c5Q9Y4gcqhOH-133" value="&lt;div&gt;Header &lt;br&gt;&lt;/div&gt;&lt;div&gt;1 Byte&lt;/div&gt;" style="text;html=1;strokeColor=none;fillColor=none;align=center;verticalAlign=middle;whiteSpace=wrap;rounded=0;" vertex="1" parent="1">
          <mxGeometry x="213.5" y="945" width="90" height="20" as="geometry" />
        </mxCell>
        <mxCell id="dQEKMLo4c5Q9Y4gcqhOH-134" value="1" style="rounded=0;whiteSpace=wrap;html=1;strokeColor=#6c8ebf;fillColor=#dae8fc;" vertex="1" parent="1">
          <mxGeometry x="137" y="1015" width="40" height="50" as="geometry" />
        </mxCell>
        <mxCell id="dQEKMLo4c5Q9Y4gcqhOH-135" value="1" style="rounded=0;whiteSpace=wrap;html=1;strokeColor=#6c8ebf;fillColor=#dae8fc;" vertex="1" parent="1">
          <mxGeometry x="177" y="1015" width="40" height="50" as="geometry" />
        </mxCell>
        <mxCell id="dQEKMLo4c5Q9Y4gcqhOH-136" value="1" style="rounded=0;whiteSpace=wrap;html=1;strokeColor=#6c8ebf;fillColor=#dae8fc;" vertex="1" parent="1">
          <mxGeometry x="217" y="1015" width="40" height="50" as="geometry" />
        </mxCell>
        <mxCell id="dQEKMLo4c5Q9Y4gcqhOH-137" value="0" style="rounded=0;whiteSpace=wrap;html=1;strokeColor=#b85450;fillColor=#f8cecc;" vertex="1" parent="1">
          <mxGeometry x="257" y="1015" width="40" height="50" as="geometry" />
        </mxCell>
        <mxCell id="dQEKMLo4c5Q9Y4gcqhOH-138" value="1" style="rounded=0;whiteSpace=wrap;html=1;strokeColor=#b85450;fillColor=#f8cecc;" vertex="1" parent="1">
          <mxGeometry x="297" y="1015" width="40" height="50" as="geometry" />
        </mxCell>
        <mxCell id="dQEKMLo4c5Q9Y4gcqhOH-139" value="1" style="rounded=0;whiteSpace=wrap;html=1;strokeColor=#b85450;fillColor=#f8cecc;" vertex="1" parent="1">
          <mxGeometry x="337" y="1015" width="40" height="50" as="geometry" />
        </mxCell>
        <mxCell id="dQEKMLo4c5Q9Y4gcqhOH-140" value="1" style="rounded=0;whiteSpace=wrap;html=1;strokeColor=#b85450;fillColor=#f8cecc;" vertex="1" parent="1">
          <mxGeometry x="377" y="1015" width="40" height="50" as="geometry" />
        </mxCell>
        <mxCell id="dQEKMLo4c5Q9Y4gcqhOH-142" value="0x00" style="text;html=1;align=center;verticalAlign=middle;resizable=0;points=[];autosize=1;" vertex="1" parent="1">
          <mxGeometry x="233.5" y="1195" width="40" height="20" as="geometry" />
        </mxCell>
        <mxCell id="dQEKMLo4c5Q9Y4gcqhOH-143" value="0x10" style="text;html=1;align=center;verticalAlign=middle;resizable=0;points=[];autosize=1;" vertex="1" parent="1">
          <mxGeometry x="233.5" y="1115" width="40" height="20" as="geometry" />
        </mxCell>
        <mxCell id="dQEKMLo4c5Q9Y4gcqhOH-144" value="0x00" style="text;html=1;align=center;verticalAlign=middle;resizable=0;points=[];autosize=1;" vertex="1" parent="1">
          <mxGeometry x="238.5" y="1275" width="40" height="20" as="geometry" />
        </mxCell>
        <mxCell id="dQEKMLo4c5Q9Y4gcqhOH-145" value="0x10" style="text;html=1;align=center;verticalAlign=middle;resizable=0;points=[];autosize=1;" vertex="1" parent="1">
          <mxGeometry x="243.5" y="1355" width="40" height="20" as="geometry" />
        </mxCell>
        <mxCell id="dQEKMLo4c5Q9Y4gcqhOH-146" value="" style="rounded=0;whiteSpace=wrap;html=1;fillColor=#e1d5e7;strokeColor=#9673a6;" vertex="1" parent="1">
          <mxGeometry x="1003.5" y="270" width="80" height="50" as="geometry" />
        </mxCell>
        <mxCell id="dQEKMLo4c5Q9Y4gcqhOH-147" value="" style="rounded=0;whiteSpace=wrap;html=1;fillColor=#f8cecc;strokeColor=#b85450;" vertex="1" parent="1">
          <mxGeometry x="1083.5" y="270" width="80" height="50" as="geometry" />
        </mxCell>
        <mxCell id="dQEKMLo4c5Q9Y4gcqhOH-148" value="" style="rounded=0;whiteSpace=wrap;html=1;fillColor=#d5e8d4;strokeColor=#82b366;" vertex="1" parent="1">
          <mxGeometry x="1163.5" y="270" width="80" height="50" as="geometry" />
        </mxCell>
        <mxCell id="dQEKMLo4c5Q9Y4gcqhOH-149" value="0" style="rounded=0;whiteSpace=wrap;html=1;fillColor=#dae8fc;strokeColor=#6c8ebf;" vertex="1" parent="1">
          <mxGeometry x="1243.5" y="270" width="40" height="50" as="geometry" />
        </mxCell>
        <mxCell id="dQEKMLo4c5Q9Y4gcqhOH-150" value="0x10000000 " style="rounded=0;whiteSpace=wrap;html=1;fillColor=#dae8fc;strokeColor=#6c8ebf;" vertex="1" parent="1">
          <mxGeometry x="1003.5" y="350" width="320" height="50" as="geometry" />
        </mxCell>
        <mxCell id="dQEKMLo4c5Q9Y4gcqhOH-151" value="0x11" style="rounded=0;whiteSpace=wrap;html=1;fillColor=#d5e8d4;strokeColor=#82b366;" vertex="1" parent="1">
          <mxGeometry x="1003.5" y="430" width="320" height="50" as="geometry" />
        </mxCell>
        <mxCell id="dQEKMLo4c5Q9Y4gcqhOH-152" value="0x11" style="rounded=0;whiteSpace=wrap;html=1;fillColor=#f8cecc;strokeColor=#b85450;" vertex="1" parent="1">
          <mxGeometry x="1003.5" y="510" width="320" height="50" as="geometry" />
        </mxCell>
        <mxCell id="dQEKMLo4c5Q9Y4gcqhOH-153" value="0x101101" style="rounded=0;whiteSpace=wrap;html=1;fillColor=#e1d5e7;strokeColor=#9673a6;" vertex="1" parent="1">
          <mxGeometry x="1003.5" y="590" width="320" height="50" as="geometry" />
        </mxCell>
        <mxCell id="dQEKMLo4c5Q9Y4gcqhOH-154" value="1" style="rounded=0;whiteSpace=wrap;html=1;fillColor=#e1d5e7;strokeColor=#9673a6;" vertex="1" parent="1">
          <mxGeometry x="1003.5" y="270" width="40" height="50" as="geometry" />
        </mxCell>
        <mxCell id="dQEKMLo4c5Q9Y4gcqhOH-155" value="1" style="rounded=0;whiteSpace=wrap;html=1;fillColor=#f8cecc;strokeColor=#b85450;" vertex="1" parent="1">
          <mxGeometry x="1083.5" y="270" width="40" height="50" as="geometry" />
        </mxCell>
        <mxCell id="dQEKMLo4c5Q9Y4gcqhOH-156" value="0" style="rounded=0;whiteSpace=wrap;html=1;fillColor=#d5e8d4;strokeColor=#82b366;" vertex="1" parent="1">
          <mxGeometry x="1163.5" y="270" width="40" height="50" as="geometry" />
        </mxCell>
        <mxCell id="dQEKMLo4c5Q9Y4gcqhOH-158" value="Payload - 1 a 4 Bytes (para cada entero)" style="text;html=1;strokeColor=none;fillColor=none;align=center;verticalAlign=middle;whiteSpace=wrap;rounded=0;" vertex="1" parent="1">
          <mxGeometry x="1261" y="680" width="232.5" height="20" as="geometry" />
        </mxCell>
        <mxCell id="dQEKMLo4c5Q9Y4gcqhOH-159" value="" style="shape=curlyBracket;whiteSpace=wrap;html=1;rounded=1;rotation=-90;" vertex="1" parent="1">
          <mxGeometry x="1488.5" y="150" width="30" height="1020" as="geometry" />
        </mxCell>
        <mxCell id="dQEKMLo4c5Q9Y4gcqhOH-160" value="" style="shape=curlyBracket;whiteSpace=wrap;html=1;rounded=1;rotation=-90;direction=west;" vertex="1" parent="1">
          <mxGeometry x="1153.5" y="80" width="30" height="340" as="geometry" />
        </mxCell>
        <mxCell id="dQEKMLo4c5Q9Y4gcqhOH-161" value="&lt;div&gt;Header &lt;br&gt;&lt;/div&gt;&lt;div&gt;1 Byte&lt;/div&gt;" style="text;html=1;strokeColor=none;fillColor=none;align=center;verticalAlign=middle;whiteSpace=wrap;rounded=0;" vertex="1" parent="1">
          <mxGeometry x="1123.5" y="210" width="90" height="20" as="geometry" />
        </mxCell>
        <mxCell id="dQEKMLo4c5Q9Y4gcqhOH-163" value="0x11101000" style="rounded=0;whiteSpace=wrap;html=1;fillColor=#d5e8d4;strokeColor=#82b366;" vertex="1" parent="1">
          <mxGeometry x="1360" y="430" width="320" height="50" as="geometry" />
        </mxCell>
        <mxCell id="dQEKMLo4c5Q9Y4gcqhOH-170" value="Entero 1" style="text;html=1;strokeColor=none;fillColor=none;align=center;verticalAlign=middle;whiteSpace=wrap;rounded=0;" vertex="1" parent="1">
          <mxGeometry x="923.5" y="365" width="80" height="20" as="geometry" />
        </mxCell>
        <mxCell id="dQEKMLo4c5Q9Y4gcqhOH-171" value="Entero 2" style="text;html=1;strokeColor=none;fillColor=none;align=center;verticalAlign=middle;whiteSpace=wrap;rounded=0;" vertex="1" parent="1">
          <mxGeometry x="923.5" y="450" width="80" height="20" as="geometry" />
        </mxCell>
        <mxCell id="dQEKMLo4c5Q9Y4gcqhOH-172" value="Entero 3" style="text;html=1;strokeColor=none;fillColor=none;align=center;verticalAlign=middle;whiteSpace=wrap;rounded=0;" vertex="1" parent="1">
          <mxGeometry x="923.5" y="525" width="80" height="20" as="geometry" />
        </mxCell>
        <mxCell id="dQEKMLo4c5Q9Y4gcqhOH-173" value="Entero 4" style="text;html=1;strokeColor=none;fillColor=none;align=center;verticalAlign=middle;whiteSpace=wrap;rounded=0;" vertex="1" parent="1">
          <mxGeometry x="923.5" y="605" width="80" height="20" as="geometry" />
        </mxCell>
        <mxCell id="dQEKMLo4c5Q9Y4gcqhOH-174" value="&lt;br&gt;&lt;p&gt;Cada flag de 2 bits indica el largo en bytes del Entero comprimido.&lt;br&gt;&lt;/p&gt;" style="text;html=1;strokeColor=none;fillColor=none;spacing=5;spacingTop=-20;whiteSpace=wrap;overflow=hidden;rounded=0;" vertex="1" parent="1">
          <mxGeometry x="1348.5" y="272" width="195" height="58" as="geometry" />
        </mxCell>
        <mxCell id="dQEKMLo4c5Q9Y4gcqhOH-208" value="1" style="rounded=0;whiteSpace=wrap;html=1;fillColor=#e1d5e7;strokeColor=#9673a6;" vertex="1" parent="1">
          <mxGeometry x="1043.5" y="270" width="40" height="50" as="geometry" />
        </mxCell>
        <mxCell id="dQEKMLo4c5Q9Y4gcqhOH-209" value="0" style="rounded=0;whiteSpace=wrap;html=1;fillColor=#f8cecc;strokeColor=#b85450;" vertex="1" parent="1">
          <mxGeometry x="1123.5" y="270" width="40" height="50" as="geometry" />
        </mxCell>
        <mxCell id="dQEKMLo4c5Q9Y4gcqhOH-210" value="1" style="rounded=0;whiteSpace=wrap;html=1;fillColor=#d5e8d4;strokeColor=#82b366;" vertex="1" parent="1">
          <mxGeometry x="1203.5" y="270" width="40" height="50" as="geometry" />
        </mxCell>
        <mxCell id="dQEKMLo4c5Q9Y4gcqhOH-211" value="0" style="rounded=0;whiteSpace=wrap;html=1;fillColor=#dae8fc;strokeColor=#6c8ebf;" vertex="1" parent="1">
          <mxGeometry x="1283.5" y="270" width="40" height="50" as="geometry" />
        </mxCell>
        <mxCell id="dQEKMLo4c5Q9Y4gcqhOH-212" value="La flag es un indentificador que indica cuantos enteros fueron comprimidos en 8 bytes." style="text;html=1;strokeColor=none;fillColor=none;spacing=5;spacingTop=-20;whiteSpace=wrap;overflow=hidden;rounded=0;" vertex="1" parent="1">
          <mxGeometry x="1326" y="985" width="195" height="58" as="geometry" />
        </mxCell>
        <mxCell id="dQEKMLo4c5Q9Y4gcqhOH-217" value="1 Byte" style="text;html=1;strokeColor=none;fillColor=none;align=center;verticalAlign=middle;whiteSpace=wrap;rounded=0;" vertex="1" parent="1">
          <mxGeometry x="997.25" y="1755" width="232.5" height="20" as="geometry" />
        </mxCell>
        <mxCell id="dQEKMLo4c5Q9Y4gcqhOH-218" value="" style="shape=curlyBracket;whiteSpace=wrap;html=1;rounded=1;rotation=-90;" vertex="1" parent="1">
          <mxGeometry x="1096" y="1555" width="30" height="340" as="geometry" />
        </mxCell>
        <mxCell id="dQEKMLo4c5Q9Y4gcqhOH-227" value="" style="shape=curlyBracket;whiteSpace=wrap;html=1;rounded=1;fillColor=#B3B3B3;direction=west;" vertex="1" parent="1">
          <mxGeometry x="1303.5" y="1055" width="20" height="650" as="geometry" />
        </mxCell>
        <mxCell id="dQEKMLo4c5Q9Y4gcqhOH-228" value="8 Bytes" style="text;html=1;strokeColor=none;fillColor=none;align=center;verticalAlign=middle;whiteSpace=wrap;rounded=0;" vertex="1" parent="1">
          <mxGeometry x="1288.5" y="1370" width="170" height="20" as="geometry" />
        </mxCell>
        <mxCell id="dQEKMLo4c5Q9Y4gcqhOH-229" value="" style="rounded=0;whiteSpace=wrap;html=1;fillColor=#f5f5f5;strokeColor=#666666;fontColor=#333333;" vertex="1" parent="1">
          <mxGeometry x="954.5" y="985" width="80" height="50" as="geometry" />
        </mxCell>
        <mxCell id="dQEKMLo4c5Q9Y4gcqhOH-230" value="0" style="rounded=0;whiteSpace=wrap;html=1;strokeColor=#6c8ebf;fillColor=#dae8fc;" vertex="1" parent="1">
          <mxGeometry x="954.5" y="985" width="40" height="50" as="geometry" />
        </mxCell>
        <mxCell id="dQEKMLo4c5Q9Y4gcqhOH-231" value="" style="shape=curlyBracket;whiteSpace=wrap;html=1;rounded=1;rotation=-90;direction=west;" vertex="1" parent="1">
          <mxGeometry x="1101" y="785" width="30" height="340" as="geometry" />
        </mxCell>
        <mxCell id="dQEKMLo4c5Q9Y4gcqhOH-232" value="&lt;div&gt;Header &lt;br&gt;&lt;/div&gt;&lt;div&gt;1 Byte&lt;/div&gt;" style="text;html=1;strokeColor=none;fillColor=none;align=center;verticalAlign=middle;whiteSpace=wrap;rounded=0;" vertex="1" parent="1">
          <mxGeometry x="1071" y="915" width="90" height="20" as="geometry" />
        </mxCell>
        <mxCell id="dQEKMLo4c5Q9Y4gcqhOH-233" value="0" style="rounded=0;whiteSpace=wrap;html=1;strokeColor=#82b366;fillColor=#d5e8d4;" vertex="1" parent="1">
          <mxGeometry x="994.5" y="985" width="40" height="50" as="geometry" />
        </mxCell>
        <mxCell id="dQEKMLo4c5Q9Y4gcqhOH-234" value="1" style="rounded=0;whiteSpace=wrap;html=1;strokeColor=#82b366;fillColor=#d5e8d4;" vertex="1" parent="1">
          <mxGeometry x="1034.5" y="985" width="40" height="50" as="geometry" />
        </mxCell>
        <mxCell id="dQEKMLo4c5Q9Y4gcqhOH-235" value="0" style="rounded=0;whiteSpace=wrap;html=1;strokeColor=#b85450;fillColor=#f8cecc;" vertex="1" parent="1">
          <mxGeometry x="1074.5" y="985" width="40" height="50" as="geometry" />
        </mxCell>
        <mxCell id="dQEKMLo4c5Q9Y4gcqhOH-236" value="0" style="rounded=0;whiteSpace=wrap;html=1;strokeColor=#9673a6;fillColor=#e1d5e7;" vertex="1" parent="1">
          <mxGeometry x="1114.5" y="985" width="40" height="50" as="geometry" />
        </mxCell>
        <mxCell id="dQEKMLo4c5Q9Y4gcqhOH-237" value="1" style="rounded=0;whiteSpace=wrap;html=1;strokeColor=#9673a6;fillColor=#e1d5e7;" vertex="1" parent="1">
          <mxGeometry x="1154.5" y="985" width="40" height="50" as="geometry" />
        </mxCell>
        <mxCell id="dQEKMLo4c5Q9Y4gcqhOH-238" value="1" style="rounded=0;whiteSpace=wrap;html=1;strokeColor=#9673a6;fillColor=#e1d5e7;" vertex="1" parent="1">
          <mxGeometry x="1194.5" y="985" width="40" height="50" as="geometry" />
        </mxCell>
        <mxCell id="dQEKMLo4c5Q9Y4gcqhOH-239" value="0" style="rounded=0;whiteSpace=wrap;html=1;strokeColor=#666666;fillColor=#f5f5f5;fontColor=#333333;" vertex="1" parent="1">
          <mxGeometry x="1234.5" y="985" width="40" height="50" as="geometry" />
        </mxCell>
        <mxCell id="dQEKMLo4c5Q9Y4gcqhOH-244" value="&lt;h1&gt;¿Cuantos enteros entran en 8 bytes?&lt;/h1&gt;&lt;p&gt;&lt;br&gt;&lt;/p&gt;" style="text;html=1;strokeColor=none;fillColor=none;spacing=5;spacingTop=-20;whiteSpace=wrap;overflow=hidden;rounded=0;" vertex="1" parent="1">
          <mxGeometry x="73.5" y="875" width="480" height="60" as="geometry" />
        </mxCell>
        <mxCell id="dQEKMLo4c5Q9Y4gcqhOH-245" value="&lt;h1&gt;Agrupa de a 4 enteros y trata de que entren en utilizando la minima cantidad de bytes. Cada 4 enteros tira 1 byte de header.&lt;br&gt;&lt;/h1&gt;&lt;p&gt;&lt;br&gt;&lt;/p&gt;" style="text;html=1;strokeColor=none;fillColor=none;spacing=5;spacingTop=-20;whiteSpace=wrap;overflow=hidden;rounded=0;" vertex="1" parent="1">
          <mxGeometry x="73.5" y="120" width="856.5" height="60" as="geometry" />
        </mxCell>
        <mxCell id="dQEKMLo4c5Q9Y4gcqhOH-247" value="&lt;h1&gt;Ejemplo: [128, 1000, 3, 3000000 ]&lt;br&gt;&lt;/h1&gt;&lt;p&gt;&lt;br&gt;&lt;/p&gt;" style="text;html=1;strokeColor=none;fillColor=none;spacing=5;spacingTop=-20;whiteSpace=wrap;overflow=hidden;rounded=0;" vertex="1" parent="1">
          <mxGeometry x="994.5" y="120" width="856.5" height="60" as="geometry" />
        </mxCell>
        <mxCell id="dQEKMLo4c5Q9Y4gcqhOH-248" value="(128)" style="text;whiteSpace=wrap;html=1;" vertex="1" parent="1">
          <mxGeometry x="1338.5" y="365" width="50" height="30" as="geometry" />
        </mxCell>
        <mxCell id="dQEKMLo4c5Q9Y4gcqhOH-249" value="1000" style="text;whiteSpace=wrap;html=1;" vertex="1" parent="1">
          <mxGeometry x="1700" y="450" width="50" height="30" as="geometry" />
        </mxCell>
        <mxCell id="dQEKMLo4c5Q9Y4gcqhOH-250" value="0x11000110" style="rounded=0;whiteSpace=wrap;html=1;fillColor=#e1d5e7;strokeColor=#9673a6;" vertex="1" parent="1">
          <mxGeometry x="1340" y="590" width="320" height="50" as="geometry" />
        </mxCell>
        <mxCell id="dQEKMLo4c5Q9Y4gcqhOH-251" value="0x11000000" style="rounded=0;whiteSpace=wrap;html=1;fillColor=#e1d5e7;strokeColor=#9673a6;" vertex="1" parent="1">
          <mxGeometry x="1680" y="590" width="320" height="50" as="geometry" />
        </mxCell>
        <mxCell id="dQEKMLo4c5Q9Y4gcqhOH-252" value="&lt;h1&gt;Ejemplo: [128, 1000, 3, 3000000, 1 ]&lt;br&gt;&lt;/h1&gt;&lt;p&gt;&lt;br&gt;&lt;/p&gt;" style="text;html=1;strokeColor=none;fillColor=none;spacing=5;spacingTop=-20;whiteSpace=wrap;overflow=hidden;rounded=0;" vertex="1" parent="1">
          <mxGeometry x="945.25" y="830" width="856.5" height="60" as="geometry" />
        </mxCell>
        <mxCell id="dQEKMLo4c5Q9Y4gcqhOH-261" value="0x10000000 " style="rounded=0;whiteSpace=wrap;html=1;fillColor=#dae8fc;strokeColor=#6c8ebf;" vertex="1" parent="1">
          <mxGeometry x="955" y="1080" width="320" height="50" as="geometry" />
        </mxCell>
        <mxCell id="dQEKMLo4c5Q9Y4gcqhOH-262" value="0x11" style="rounded=0;whiteSpace=wrap;html=1;fillColor=#d5e8d4;strokeColor=#82b366;" vertex="1" parent="1">
          <mxGeometry x="955" y="1160" width="320" height="50" as="geometry" />
        </mxCell>
        <mxCell id="dQEKMLo4c5Q9Y4gcqhOH-263" value="Entero 1" style="text;html=1;strokeColor=none;fillColor=none;align=center;verticalAlign=middle;whiteSpace=wrap;rounded=0;" vertex="1" parent="1">
          <mxGeometry x="875" y="1095" width="80" height="20" as="geometry" />
        </mxCell>
        <mxCell id="dQEKMLo4c5Q9Y4gcqhOH-264" value="Entero 2" style="text;html=1;strokeColor=none;fillColor=none;align=center;verticalAlign=middle;whiteSpace=wrap;rounded=0;" vertex="1" parent="1">
          <mxGeometry x="875" y="1180" width="80" height="20" as="geometry" />
        </mxCell>
        <mxCell id="dQEKMLo4c5Q9Y4gcqhOH-265" value="0x11101000" style="rounded=0;whiteSpace=wrap;html=1;fillColor=#d5e8d4;strokeColor=#82b366;" vertex="1" parent="1">
          <mxGeometry x="955" y="1245" width="320" height="50" as="geometry" />
        </mxCell>
        <mxCell id="dQEKMLo4c5Q9Y4gcqhOH-266" value="0x11" style="rounded=0;whiteSpace=wrap;html=1;fillColor=#f8cecc;strokeColor=#b85450;" vertex="1" parent="1">
          <mxGeometry x="956" y="1340" width="320" height="50" as="geometry" />
        </mxCell>
        <mxCell id="dQEKMLo4c5Q9Y4gcqhOH-267" value="0x101101" style="rounded=0;whiteSpace=wrap;html=1;fillColor=#e1d5e7;strokeColor=#9673a6;" vertex="1" parent="1">
          <mxGeometry x="954.5" y="1420" width="320" height="50" as="geometry" />
        </mxCell>
        <mxCell id="dQEKMLo4c5Q9Y4gcqhOH-268" value="0x11000110" style="rounded=0;whiteSpace=wrap;html=1;fillColor=#e1d5e7;strokeColor=#9673a6;" vertex="1" parent="1">
          <mxGeometry x="954.5" y="1505" width="320" height="50" as="geometry" />
        </mxCell>
        <mxCell id="dQEKMLo4c5Q9Y4gcqhOH-269" value="0x11000000" style="rounded=0;whiteSpace=wrap;html=1;fillColor=#e1d5e7;strokeColor=#9673a6;" vertex="1" parent="1">
          <mxGeometry x="953.5" y="1580" width="320" height="50" as="geometry" />
        </mxCell>
        <mxCell id="dQEKMLo4c5Q9Y4gcqhOH-271" value="0x1" style="rounded=0;whiteSpace=wrap;html=1;fillColor=#f5f5f5;strokeColor=#666666;fontColor=#333333;" vertex="1" parent="1">
          <mxGeometry x="955" y="1650" width="320" height="50" as="geometry" />
        </mxCell>
        <mxCell id="dQEKMLo4c5Q9Y4gcqhOH-272" value="Entero 3" style="text;html=1;strokeColor=none;fillColor=none;align=center;verticalAlign=middle;whiteSpace=wrap;rounded=0;" vertex="1" parent="1">
          <mxGeometry x="871" y="1355" width="80" height="20" as="geometry" />
        </mxCell>
        <mxCell id="dQEKMLo4c5Q9Y4gcqhOH-273" value="Entero 4" style="text;html=1;strokeColor=none;fillColor=none;align=center;verticalAlign=middle;whiteSpace=wrap;rounded=0;" vertex="1" parent="1">
          <mxGeometry x="871" y="1435" width="80" height="20" as="geometry" />
        </mxCell>
        <mxCell id="dQEKMLo4c5Q9Y4gcqhOH-276" value="Entero 5" style="text;html=1;strokeColor=none;fillColor=none;align=center;verticalAlign=middle;whiteSpace=wrap;rounded=0;" vertex="1" parent="1">
          <mxGeometry x="873.5" y="1665" width="80" height="20" as="geometry" />
        </mxCell>
      </root>
    </mxGraphModel>
  </diagram>
</mxfile>
